<mxfile host="app.diagrams.net" agent="Mozilla/5.0 (Windows NT 10.0; Win64; x64) AppleWebKit/537.36 (KHTML, like Gecko) Chrome/133.0.0.0 Safari/537.36 Edg/133.0.0.0" version="26.1.0">
  <diagram name="Trang-1" id="xQckLvAj3hq3U4Xr7lNH">
    <mxGraphModel grid="1" page="1" gridSize="10" guides="1" tooltips="1" connect="1" arrows="1" fold="1" pageScale="1" pageWidth="827" pageHeight="1169" math="0" shadow="0">
      <root>
        <mxCell id="0" />
        <mxCell id="1" parent="0" />
        <mxCell id="BniUdQKXmLJUT5iwou37-1" style="edgeStyle=orthogonalEdgeStyle;rounded=0;orthogonalLoop=1;jettySize=auto;html=1;entryX=0.5;entryY=0;entryDx=0;entryDy=0;" edge="1" parent="1" source="UMWldC5iZ7alYUXcXH2B-1" target="UMWldC5iZ7alYUXcXH2B-2">
          <mxGeometry relative="1" as="geometry" />
        </mxCell>
        <mxCell id="UMWldC5iZ7alYUXcXH2B-1" value="Begin" style="ellipse;whiteSpace=wrap;html=1;" vertex="1" parent="1">
          <mxGeometry x="300" y="60" width="120" height="40" as="geometry" />
        </mxCell>
        <mxCell id="BniUdQKXmLJUT5iwou37-4" style="edgeStyle=orthogonalEdgeStyle;rounded=0;orthogonalLoop=1;jettySize=auto;html=1;" edge="1" parent="1" source="UMWldC5iZ7alYUXcXH2B-2" target="UMWldC5iZ7alYUXcXH2B-3">
          <mxGeometry relative="1" as="geometry" />
        </mxCell>
        <mxCell id="UMWldC5iZ7alYUXcXH2B-2" value="Input điểm Toán" style="shape=parallelogram;perimeter=parallelogramPerimeter;whiteSpace=wrap;html=1;fixedSize=1;" vertex="1" parent="1">
          <mxGeometry x="275" y="120" width="170" height="30" as="geometry" />
        </mxCell>
        <mxCell id="BniUdQKXmLJUT5iwou37-5" style="edgeStyle=orthogonalEdgeStyle;rounded=0;orthogonalLoop=1;jettySize=auto;html=1;entryX=0.5;entryY=0;entryDx=0;entryDy=0;" edge="1" parent="1" source="UMWldC5iZ7alYUXcXH2B-3" target="UMWldC5iZ7alYUXcXH2B-4">
          <mxGeometry relative="1" as="geometry" />
        </mxCell>
        <mxCell id="UMWldC5iZ7alYUXcXH2B-3" value="Input điểm Lý" style="shape=parallelogram;perimeter=parallelogramPerimeter;whiteSpace=wrap;html=1;fixedSize=1;" vertex="1" parent="1">
          <mxGeometry x="275" y="180" width="170" height="30" as="geometry" />
        </mxCell>
        <mxCell id="BniUdQKXmLJUT5iwou37-6" style="edgeStyle=orthogonalEdgeStyle;rounded=0;orthogonalLoop=1;jettySize=auto;html=1;entryX=0.5;entryY=0;entryDx=0;entryDy=0;" edge="1" parent="1" source="UMWldC5iZ7alYUXcXH2B-4" target="UMWldC5iZ7alYUXcXH2B-5">
          <mxGeometry relative="1" as="geometry" />
        </mxCell>
        <mxCell id="UMWldC5iZ7alYUXcXH2B-4" value="Input điểm Hóa" style="shape=parallelogram;perimeter=parallelogramPerimeter;whiteSpace=wrap;html=1;fixedSize=1;" vertex="1" parent="1">
          <mxGeometry x="270" y="230" width="170" height="30" as="geometry" />
        </mxCell>
        <mxCell id="BniUdQKXmLJUT5iwou37-7" style="edgeStyle=orthogonalEdgeStyle;rounded=0;orthogonalLoop=1;jettySize=auto;html=1;entryX=0.5;entryY=0;entryDx=0;entryDy=0;" edge="1" parent="1" source="UMWldC5iZ7alYUXcXH2B-5" target="UMWldC5iZ7alYUXcXH2B-6">
          <mxGeometry relative="1" as="geometry" />
        </mxCell>
        <mxCell id="UMWldC5iZ7alYUXcXH2B-5" value="điểm TB= (Toán+Lý+Hóa) / 3" style="rounded=1;whiteSpace=wrap;html=1;" vertex="1" parent="1">
          <mxGeometry x="258.75" y="280" width="192.5" height="60" as="geometry" />
        </mxCell>
        <mxCell id="UMWldC5iZ7alYUXcXH2B-11" value="" style="edgeStyle=orthogonalEdgeStyle;rounded=0;orthogonalLoop=1;jettySize=auto;html=1;" edge="1" parent="1" source="UMWldC5iZ7alYUXcXH2B-6" target="UMWldC5iZ7alYUXcXH2B-7">
          <mxGeometry relative="1" as="geometry" />
        </mxCell>
        <mxCell id="UMWldC5iZ7alYUXcXH2B-6" value="DIspay : điểm TB" style="shape=parallelogram;perimeter=parallelogramPerimeter;whiteSpace=wrap;html=1;fixedSize=1;" vertex="1" parent="1">
          <mxGeometry x="270" y="370" width="170" height="50" as="geometry" />
        </mxCell>
        <mxCell id="UMWldC5iZ7alYUXcXH2B-7" value="END" style="ellipse;whiteSpace=wrap;html=1;" vertex="1" parent="1">
          <mxGeometry x="295" y="450" width="120" height="40" as="geometry" />
        </mxCell>
      </root>
    </mxGraphModel>
  </diagram>
</mxfile>
